<mxfile host="app.diagrams.net" agent="Mozilla/5.0 (Windows NT 10.0; Win64; x64) AppleWebKit/537.36 (KHTML, like Gecko) Chrome/131.0.0.0 Safari/537.36" version="26.0.4">
  <diagram name="Page-1" id="kpixJnAiN2DFvEDOHW9E">
    <mxGraphModel dx="2037" dy="781" grid="1" gridSize="10" guides="1" tooltips="1" connect="1" arrows="1" fold="1" page="1" pageScale="1" pageWidth="827" pageHeight="1169" math="0" shadow="0">
      <root>
        <mxCell id="0" />
        <mxCell id="1" parent="0" />
        <mxCell id="qNBYBPhV4o__3GQzp8Zp-7" value="" style="rounded=0;whiteSpace=wrap;html=1;" parent="1" vertex="1">
          <mxGeometry x="130" y="420" width="520" height="400" as="geometry" />
        </mxCell>
        <mxCell id="qNBYBPhV4o__3GQzp8Zp-8" style="rounded=0;orthogonalLoop=1;jettySize=auto;html=1;exitX=1;exitY=0.5;exitDx=0;exitDy=0;entryX=0;entryY=0.25;entryDx=0;entryDy=0;fillColor=#f8cecc;strokeColor=#b85450;jumpSize=20;strokeWidth=2;dashed=1;" parent="1" source="qNBYBPhV4o__3GQzp8Zp-1" target="qNBYBPhV4o__3GQzp8Zp-5" edge="1">
          <mxGeometry relative="1" as="geometry" />
        </mxCell>
        <mxCell id="qNBYBPhV4o__3GQzp8Zp-1" value="Capteur X" style="rounded=0;whiteSpace=wrap;html=1;fillColor=#dae8fc;strokeColor=#6c8ebf;" parent="1" vertex="1">
          <mxGeometry x="200" y="470" width="120" height="60" as="geometry" />
        </mxCell>
        <mxCell id="qNBYBPhV4o__3GQzp8Zp-9" style="rounded=0;orthogonalLoop=1;jettySize=auto;html=1;entryX=0;entryY=0.5;entryDx=0;entryDy=0;exitX=1;exitY=0.5;exitDx=0;exitDy=0;fillColor=#f8cecc;strokeColor=#b85450;jumpSize=20;strokeWidth=2;dashed=1;" parent="1" source="qNBYBPhV4o__3GQzp8Zp-2" target="qNBYBPhV4o__3GQzp8Zp-5" edge="1">
          <mxGeometry relative="1" as="geometry" />
        </mxCell>
        <mxCell id="qNBYBPhV4o__3GQzp8Zp-2" value="Capteur Y" style="rounded=0;whiteSpace=wrap;html=1;fillColor=#dae8fc;strokeColor=#6c8ebf;" parent="1" vertex="1">
          <mxGeometry x="200" y="590" width="120" height="60" as="geometry" />
        </mxCell>
        <mxCell id="qNBYBPhV4o__3GQzp8Zp-10" style="rounded=0;orthogonalLoop=1;jettySize=auto;html=1;entryX=0;entryY=0.75;entryDx=0;entryDy=0;exitX=1;exitY=0.5;exitDx=0;exitDy=0;fillColor=#f8cecc;strokeColor=#b85450;jumpSize=20;strokeWidth=2;dashed=1;" parent="1" source="qNBYBPhV4o__3GQzp8Zp-4" target="qNBYBPhV4o__3GQzp8Zp-5" edge="1">
          <mxGeometry relative="1" as="geometry" />
        </mxCell>
        <mxCell id="qNBYBPhV4o__3GQzp8Zp-4" value="Capteur Z" style="rounded=0;whiteSpace=wrap;html=1;fillColor=#dae8fc;strokeColor=#6c8ebf;" parent="1" vertex="1">
          <mxGeometry x="200" y="710" width="120" height="60" as="geometry" />
        </mxCell>
        <mxCell id="qNBYBPhV4o__3GQzp8Zp-11" style="edgeStyle=orthogonalEdgeStyle;rounded=0;orthogonalLoop=1;jettySize=auto;html=1;fillColor=#f8cecc;strokeColor=#b85450;jumpSize=20;strokeWidth=2;dashed=1;" parent="1" source="qNBYBPhV4o__3GQzp8Zp-5" target="qNBYBPhV4o__3GQzp8Zp-6" edge="1">
          <mxGeometry relative="1" as="geometry" />
        </mxCell>
        <mxCell id="qNBYBPhV4o__3GQzp8Zp-16" style="edgeStyle=orthogonalEdgeStyle;rounded=0;orthogonalLoop=1;jettySize=auto;html=1;fillColor=#f8cecc;strokeColor=#b85450;jumpSize=20;strokeWidth=2;dashed=1;" parent="1" source="qNBYBPhV4o__3GQzp8Zp-5" target="qNBYBPhV4o__3GQzp8Zp-13" edge="1">
          <mxGeometry relative="1" as="geometry" />
        </mxCell>
        <mxCell id="qNBYBPhV4o__3GQzp8Zp-5" value="Passerelle MQTT" style="rounded=0;whiteSpace=wrap;html=1;fillColor=#dae8fc;strokeColor=#6c8ebf;" parent="1" vertex="1">
          <mxGeometry x="470" y="590" width="120" height="60" as="geometry" />
        </mxCell>
        <mxCell id="qNBYBPhV4o__3GQzp8Zp-15" style="rounded=0;orthogonalLoop=1;jettySize=auto;html=1;entryX=0;entryY=0.5;entryDx=0;entryDy=0;exitX=1;exitY=0.5;exitDx=0;exitDy=0;startArrow=classic;startFill=1;strokeWidth=2;fillColor=#dae8fc;strokeColor=#6c8ebf;" parent="1" source="qNBYBPhV4o__3GQzp8Zp-6" target="qNBYBPhV4o__3GQzp8Zp-12" edge="1">
          <mxGeometry relative="1" as="geometry" />
        </mxCell>
        <mxCell id="qNBYBPhV4o__3GQzp8Zp-6" value="Bridge" style="rounded=0;whiteSpace=wrap;html=1;fillColor=#dae8fc;strokeColor=#6c8ebf;" parent="1" vertex="1">
          <mxGeometry x="470" y="470" width="120" height="60" as="geometry" />
        </mxCell>
        <mxCell id="qNBYBPhV4o__3GQzp8Zp-17" style="edgeStyle=orthogonalEdgeStyle;rounded=0;orthogonalLoop=1;jettySize=auto;html=1;startArrow=classic;startFill=1;fillColor=#dae8fc;strokeColor=#6c8ebf;strokeWidth=2;" parent="1" source="qNBYBPhV4o__3GQzp8Zp-12" target="qNBYBPhV4o__3GQzp8Zp-13" edge="1">
          <mxGeometry relative="1" as="geometry" />
        </mxCell>
        <mxCell id="qNBYBPhV4o__3GQzp8Zp-12" value="Base de donnÃ©es" style="rounded=0;whiteSpace=wrap;html=1;fillColor=#dae8fc;strokeColor=#6c8ebf;" parent="1" vertex="1">
          <mxGeometry x="780" y="470" width="120" height="60" as="geometry" />
        </mxCell>
        <mxCell id="qNBYBPhV4o__3GQzp8Zp-18" style="edgeStyle=orthogonalEdgeStyle;rounded=0;orthogonalLoop=1;jettySize=auto;html=1;startArrow=none;startFill=0;entryX=0.25;entryY=0;entryDx=0;entryDy=0;endArrow=classic;endFill=1;fillColor=#d5e8d4;strokeColor=#82b366;strokeWidth=2;" parent="1" source="qNBYBPhV4o__3GQzp8Zp-13" target="qNBYBPhV4o__3GQzp8Zp-14" edge="1">
          <mxGeometry relative="1" as="geometry">
            <mxPoint x="750" y="670" as="sourcePoint" />
            <Array as="points">
              <mxPoint x="810" y="700" />
              <mxPoint x="810" y="700" />
            </Array>
          </mxGeometry>
        </mxCell>
        <mxCell id="qNBYBPhV4o__3GQzp8Zp-13" value="API" style="rounded=0;whiteSpace=wrap;html=1;fillColor=#dae8fc;strokeColor=#6c8ebf;" parent="1" vertex="1">
          <mxGeometry x="780" y="590" width="120" height="60" as="geometry" />
        </mxCell>
        <mxCell id="qNBYBPhV4o__3GQzp8Zp-14" value="IHM" style="rounded=0;whiteSpace=wrap;html=1;fillColor=#dae8fc;strokeColor=#6c8ebf;" parent="1" vertex="1">
          <mxGeometry x="780" y="710" width="120" height="60" as="geometry" />
        </mxCell>
        <mxCell id="qNBYBPhV4o__3GQzp8Zp-19" style="edgeStyle=orthogonalEdgeStyle;rounded=0;orthogonalLoop=1;jettySize=auto;html=1;fillColor=#f8cecc;strokeColor=#b85450;jumpSize=20;strokeWidth=2;dashed=1;" parent="1" edge="1">
          <mxGeometry relative="1" as="geometry">
            <mxPoint x="309" y="880" as="sourcePoint" />
            <mxPoint x="359" y="880" as="targetPoint" />
          </mxGeometry>
        </mxCell>
        <mxCell id="qNBYBPhV4o__3GQzp8Zp-20" value="MQTT" style="text;html=1;align=left;verticalAlign=middle;resizable=0;points=[];autosize=1;strokeColor=none;fillColor=none;fontColor=light-dark(#b9544f, #ededed);" parent="1" vertex="1">
          <mxGeometry x="369" y="865" width="60" height="30" as="geometry" />
        </mxCell>
        <mxCell id="qNBYBPhV4o__3GQzp8Zp-21" style="edgeStyle=orthogonalEdgeStyle;rounded=0;orthogonalLoop=1;jettySize=auto;html=1;startArrow=classic;startFill=1;exitX=0.75;exitY=1;exitDx=0;exitDy=0;entryX=0.75;entryY=0;entryDx=0;entryDy=0;fillColor=#e1d5e7;strokeColor=#9673a6;strokeWidth=2;" parent="1" source="qNBYBPhV4o__3GQzp8Zp-13" target="qNBYBPhV4o__3GQzp8Zp-14" edge="1">
          <mxGeometry relative="1" as="geometry">
            <mxPoint x="910" y="670" as="sourcePoint" />
            <mxPoint x="940" y="680" as="targetPoint" />
            <Array as="points" />
          </mxGeometry>
        </mxCell>
        <mxCell id="qNBYBPhV4o__3GQzp8Zp-22" style="rounded=0;orthogonalLoop=1;jettySize=auto;html=1;exitX=1;exitY=0.5;exitDx=0;exitDy=0;startArrow=classic;startFill=1;strokeWidth=2;fillColor=#dae8fc;strokeColor=#6c8ebf;" parent="1" edge="1">
          <mxGeometry relative="1" as="geometry">
            <mxPoint x="459" y="880.76" as="sourcePoint" />
            <mxPoint x="509" y="880.76" as="targetPoint" />
          </mxGeometry>
        </mxCell>
        <mxCell id="qNBYBPhV4o__3GQzp8Zp-23" value="MongoDB Wire Protocol" style="text;html=1;align=left;verticalAlign=middle;resizable=0;points=[];autosize=1;strokeColor=none;fillColor=none;fontColor=light-dark(#6c8ebf, #ededed);" parent="1" vertex="1">
          <mxGeometry x="519" y="866" width="150" height="30" as="geometry" />
        </mxCell>
        <mxCell id="qNBYBPhV4o__3GQzp8Zp-25" style="edgeStyle=orthogonalEdgeStyle;rounded=0;orthogonalLoop=1;jettySize=auto;html=1;startArrow=none;startFill=0;endArrow=classic;endFill=1;fillColor=#d5e8d4;strokeColor=#82b366;strokeWidth=2;" parent="1" edge="1">
          <mxGeometry relative="1" as="geometry">
            <mxPoint x="309" y="920.76" as="sourcePoint" />
            <mxPoint x="359" y="920.76" as="targetPoint" />
            <Array as="points">
              <mxPoint x="339" y="920.76" />
              <mxPoint x="339" y="920.76" />
            </Array>
          </mxGeometry>
        </mxCell>
        <mxCell id="qNBYBPhV4o__3GQzp8Zp-26" value="WebSocket" style="text;html=1;align=left;verticalAlign=middle;resizable=0;points=[];autosize=1;strokeColor=none;fillColor=none;fontColor=light-dark(#81b365, #ededed);" parent="1" vertex="1">
          <mxGeometry x="369" y="906" width="80" height="30" as="geometry" />
        </mxCell>
        <mxCell id="qNBYBPhV4o__3GQzp8Zp-27" style="edgeStyle=orthogonalEdgeStyle;rounded=0;orthogonalLoop=1;jettySize=auto;html=1;startArrow=classic;startFill=1;exitX=0.75;exitY=1;exitDx=0;exitDy=0;fillColor=#e1d5e7;strokeColor=#9673a6;strokeWidth=2;" parent="1" edge="1">
          <mxGeometry relative="1" as="geometry">
            <mxPoint x="459" y="921" as="sourcePoint" />
            <mxPoint x="509" y="921" as="targetPoint" />
            <Array as="points" />
          </mxGeometry>
        </mxCell>
        <mxCell id="qNBYBPhV4o__3GQzp8Zp-28" value="REST" style="text;html=1;align=left;verticalAlign=middle;resizable=0;points=[];autosize=1;strokeColor=none;fillColor=none;fontColor=light-dark(#9773a6, #ededed);" parent="1" vertex="1">
          <mxGeometry x="519" y="907" width="60" height="30" as="geometry" />
        </mxCell>
        <mxCell id="qNBYBPhV4o__3GQzp8Zp-29" value="" style="rounded=0;whiteSpace=wrap;html=1;fillColor=#dae8fc;strokeColor=#6c8ebf;" parent="1" vertex="1">
          <mxGeometry x="160" y="870" width="30" height="20" as="geometry" />
        </mxCell>
        <mxCell id="qNBYBPhV4o__3GQzp8Zp-30" value="Conteneurs" style="text;html=1;align=left;verticalAlign=middle;resizable=0;points=[];autosize=1;strokeColor=none;fillColor=none;fontColor=light-dark(#7f9cc8, #ededed);" parent="1" vertex="1">
          <mxGeometry x="200" y="865" width="90" height="30" as="geometry" />
        </mxCell>
        <mxCell id="qNBYBPhV4o__3GQzp8Zp-31" value="&lt;h3&gt;Structure simplifiÃ©e des interactions&lt;/h3&gt;&lt;ol&gt;&lt;li&gt;&lt;strong&gt;Capteur â Broker MQTT&lt;/strong&gt; : Le capteur scanne le rÃ©seau, trouve le broker MQTT sur le port &lt;strong&gt;8883&lt;/strong&gt;, et lui envoie ses messages ainsi que des pings.&lt;/li&gt;&lt;li&gt;&lt;strong&gt;Broker MQTT â Bridge&lt;/strong&gt; : Transmission des messages au bridge pour archivage.&lt;/li&gt;&lt;li&gt;&lt;strong&gt;&lt;strong&gt;&lt;strong&gt;Broker MQTT&amp;nbsp;&lt;/strong&gt;â&lt;/strong&gt;&amp;nbsp;API&amp;nbsp;&lt;/strong&gt;: DonnÃ©es temps rÃ©el (messages et alertes).&lt;/li&gt;&lt;li&gt;&lt;strong&gt;Bridge â Base MongoDB&lt;/strong&gt; : Mise Ã  jour des tables :&lt;ul&gt;&lt;li&gt;&lt;strong&gt;Messages&lt;/strong&gt; : Enregistrement des messages reÃ§us.&lt;/li&gt;&lt;li&gt;&lt;strong&gt;Unknown Sensors&lt;/strong&gt; : Ajout des capteurs inconnus et mise Ã  jour de leurs Ã©tats.&lt;/li&gt;&lt;li&gt;&lt;strong&gt;Known Sensors&lt;/strong&gt; : Mise Ã  jour des Ã©tats des capteurs&lt;/li&gt;&lt;/ul&gt;&lt;/li&gt;&lt;li&gt;&lt;strong&gt;API â Base MongoDB&lt;/strong&gt; : Gestion des donnÃ©es.&lt;/li&gt;&lt;li&gt;&lt;strong&gt;IHM â API&lt;/strong&gt;&amp;nbsp;:&lt;ul&gt;&lt;li&gt;&lt;strong&gt;WebSocket&lt;/strong&gt;&amp;nbsp;: DonnÃ©es temps rÃ©el (messages et alertes).&lt;/li&gt;&lt;li&gt;&lt;strong&gt;RequÃªtes REST&lt;/strong&gt;&amp;nbsp;: Consultation de lâhistorique et modification des capteurs.&lt;/li&gt;&lt;/ul&gt;&lt;/li&gt;&lt;/ol&gt;" style="text;whiteSpace=wrap;html=1;" parent="1" vertex="1">
          <mxGeometry x="950" y="550" width="490" height="270" as="geometry" />
        </mxCell>
        <mxCell id="7m0dvs8Dy9rxRKjs0k93-1" value="&lt;h3&gt;Structure des tables MongoDB (NoSQL)&lt;/h3&gt;&lt;div&gt;&lt;b&gt;- messages&amp;nbsp;: &lt;/b&gt;sensor_id, type, value, unit, timestamp&lt;/div&gt;&lt;div&gt;&lt;b&gt;- unknown_devices :&amp;nbsp;&lt;/b&gt;&lt;span style=&quot;background-color: transparent; color: light-dark(rgb(0, 0, 0), rgb(255, 255, 255));&quot;&gt;sensor_id, name, room, status&lt;/span&gt;&lt;/div&gt;&lt;div&gt;&lt;b&gt;- known_devices :&amp;nbsp;&lt;/b&gt;&lt;span style=&quot;background-color: transparent; color: light-dark(rgb(0, 0, 0), rgb(255, 255, 255));&quot;&gt;sensor_id, name, room, status&lt;/span&gt;&lt;/div&gt;" style="text;whiteSpace=wrap;html=1;" vertex="1" parent="1">
          <mxGeometry x="950" y="420" width="490" height="110" as="geometry" />
        </mxCell>
      </root>
    </mxGraphModel>
  </diagram>
</mxfile>
